# xmcd
#
# Track frame offsets: 
#        187
#        16130
#        33705
#        50352
#        63252
#        82275
#        101670
#        118300
#        134737
#        146762
#        161302
#        175000
#
# Disc length: 2590 seconds
#
# Revision: 5
# Processed by: cddbd v1.5.2PL0 Copyright (c) Steve Scherf et al.
# Submitted via: ExactAudioCopy v1.3
#
DISCID=aa0a1c0c
DTITLE=Kenny Rogers - Greatest Hits
DYEAR=1980
DGENRE=Country
TTITLE0=The Gambler
TTITLE1=Lady
TTITLE2=Don't Fall in Love with a Dreamer
TTITLE3=Ruby Don't Take Your Love to Town
TTITLE4=She Believes in Me
TTITLE5=Coward of the County
TTITLE6=Lucille
TTITLE7=You Decorated My Life
TTITLE8=Reuben James
TTITLE9=Love the World Away
TTITLE10=Every Time Two Fools Collide
TTITLE11=Long Arm of the Law
EXTD=CD (c) Liberty Records Capitol DIDX 413 - CDP 7-46004-2\nReleased
EXTD=1980 on LP as C 064-83003 on United Artists Records Germany
EXTT0=
EXTT1=
EXTT2=
EXTT3=
EXTT4=
EXTT5=
EXTT6=
EXTT7=
EXTT8=
EXTT9=
EXTT10=
EXTT11=
PLAYORDER=
